<svg version="1" xmlns="http://www.w3.org/2000/svg" width="933.333" height="933.333" viewBox="0 0 700.000000 700.000000"><path d="M400.7 7.6c-.1.1-4.7.5-10.2.8-5.5.3-11.1.8-12.5 1.1-1.4.3-4.1.8-6 1.1-18.6 2.9-43.3 13-60.4 24.6-21.3 14.4-41.2 37.9-51.3 60.8-1.5 3.3-3 6-3.4 6-.3 0-.9-2.4-1.3-5.4-.3-3-2.2-9.5-4.1-14.5-15.1-39.7-45.4-63.2-88.5-68.7-27.6-3.5-73 5.6-85.3 17.1L75 33.1l.3 295.7c.3 295 .3 295.7 2.4 304.2 3.8 15.8 8.2 25.5 15.6 34.5 10.8 13.2 29.8 22 52.2 24.1 13.4 1.2 45.5.7 55.2-1 33.1-5.7 52.1-24.7 60.1-59.9 1.4-6.3 1.6-19.8 2.1-102.1l.6-95 4.7 8c20 34.5 52.2 58.7 92.2 69.4 28.2 7.5 61.9 7.3 97.1-.4 7-1.5 24.1-6.8 29-9 1.7-.8 5.9-2.6 9.5-4.2 40.1-17.5 77.1-54 98.4-96.9 6.2-12.6 10.6-22.5 9.9-22.5-.3 0-.1-.6.5-1.3 2.7-3.3 11.9-36 14.8-52.7 1.2-7.2 1.6-9.8 2-12.3.2-1.5.5-4.4.8-6.5 1.6-12.4 2.1-21.5 2.1-44.7 0-23.1-.4-31.8-2-44.5-.3-1.9-.7-5.5-1-8-.3-2.5-1.9-11-3.5-19-10.1-50.4-32-93.2-63.2-123.6-21.5-20.9-43.8-34.7-73.3-45.2-6.8-2.5-26.9-7.7-33-8.6-2.2-.4-5.3-.8-7-1.1-6.6-1-10.4-1.4-19-2-8.8-.7-21.5-1.1-21.8-.9zm-30.2 148.1c28.6 4.9 49.5 20.4 63 46.8 17.7 34.6 17.3 87.5-.8 121-3.4 6.3-10.2 15.4-15.9 21.3-5.3 5.6-16.7 14.2-18.7 14.2-.6 0-1.1.5-1.1 1 0 .6-.3.9-.7.8-.5 0-3.4 1.1-6.7 2.6-18.3 8.4-46.9 9.7-68.8 3.2-24.3-7.3-43.3-24.9-51.7-47.8-5-13.6-5.2-16.4-5.2-66.1v-42.8l3.6-6.7c14.1-25.7 37.2-42.2 67-47.6 9.8-1.8 25.3-1.8 36 .1z"/></svg>