<svg xmlns="http://www.w3.org/2000/svg" viewBox="0 0 661 576.5"><defs><style>.cls-1{fill:#f5f0e8;}.cls-2{fill:#90ba90;}.cls-3,.cls-7,.cls-8{fill:none;}.cls-3,.cls-8{stroke:#424242;}.cls-3{stroke-miterlimit:10;stroke-width:2px;}.cls-4{fill:#fc7327;}.cls-5{fill:#224222;}.cls-6{fill:#528252;}.cls-7{stroke:#fc7327;}</style></defs><g id="Ebene_2" data-name="Ebene 2"><g id="Ebene_1-2" data-name="Ebene 1"><ellipse id="Ellipse_9" data-name="Ellipse 9" class="cls-1" cx="315.5" cy="494.5" rx="315.5" ry="82"/><circle id="Ellipse_10" data-name="Ellipse 10" class="cls-2" cx="435.72" cy="156.67" r="53.73"/><circle id="Ellipse_11" data-name="Ellipse 11" class="cls-2" cx="344.39" cy="283.13" r="53.73"/><ellipse id="Ellipse_12" data-name="Ellipse 12" class="cls-3" cx="344.5" cy="478" rx="315.5" ry="81.5"/><circle id="Ellipse_20" data-name="Ellipse 20" class="cls-2" cx="241.64" cy="384.12" r="53.73"/><line id="Linie_6" data-name="Linie 6" class="cls-3" x1="241.59" y1="481.29" x2="241.59" y2="383.83"/><circle id="Ellipse_21" data-name="Ellipse 21" class="cls-4" cx="241.59" cy="383.82" r="13.78"/><path id="Pfad_39" data-name="Pfad 39" class="cls-5" d="M241.59,443.9s-2-42.35-42.33-37.43"/><line id="Linie_7" data-name="Linie 7" class="cls-3" x1="435.75" y1="481.98" x2="435.75" y2="156.87"/><circle id="Ellipse_22" data-name="Ellipse 22" class="cls-4" cx="435.75" cy="156.72" r="13.78"/><path id="Pfad_40" data-name="Pfad 40" class="cls-5" d="M435.75,227.12s-2-42.35-42.33-37.42"/><path id="Pfad_41" data-name="Pfad 41" class="cls-5" d="M435.75,347.18s-2-42.35-42.33-37.43"/><path id="Pfad_42" data-name="Pfad 42" class="cls-3" d="M435.75,478.19s8.86-82.32-42.33-86.26"/><path id="Pfad_43" data-name="Pfad 43" class="cls-3" d="M435.76,478.19s-8.86-82.32,42.33-86.26"/><line id="Linie_8" data-name="Linie 8" class="cls-3" x1="344.44" y1="481.52" x2="344.44" y2="283.07"/><circle id="Ellipse_26" data-name="Ellipse 26" class="cls-4" cx="344.44" cy="283.07" r="13.78"/><path id="Pfad_45" data-name="Pfad 45" class="cls-5" d="M344.44,339.2s-2-42.35-42.34-37.42"/><path id="Pfad_46" data-name="Pfad 46" class="cls-3" d="M344.44,477.73s5.37-49.42-16.65-73.34c-6-6.51-14.37-11.17-25.69-12"/><line id="Linie_9" data-name="Linie 9" class="cls-3" x1="192.38" y1="481.33" x2="476.91" y2="481.33"/><circle id="Ellipse_29" data-name="Ellipse 29" class="cls-1" cx="138" cy="137.5" r="28"/><circle id="Ellipse_32" data-name="Ellipse 32" class="cls-1" cx="443" cy="35.5" r="28"/><circle id="Ellipse_35" data-name="Ellipse 35" class="cls-1" cx="581" cy="308.5" r="28"/><circle id="Ellipse_23" data-name="Ellipse 23" class="cls-6" cx="393.42" cy="391.93" r="13.78"/><circle id="Ellipse_24" data-name="Ellipse 24" class="cls-6" cx="478.09" cy="391.93" r="13.78"/><path id="Pfad_44" data-name="Pfad 44" class="cls-3" d="M436.6,344.5s-8.86-77.92,42.33-81.86"/><circle id="Ellipse_27" data-name="Ellipse 27" class="cls-6" cx="302.1" cy="392.35" r="13.78"/><circle id="Ellipse_25" data-name="Ellipse 25" class="cls-6" cx="478.93" cy="262.64" r="13.78"/><circle id="Ellipse_31" data-name="Ellipse 31" class="cls-7" cx="149.5" cy="133" r="30.5"/><circle id="Ellipse_33" data-name="Ellipse 33" class="cls-8" cx="454.5" cy="31" r="30.5"/><circle id="Ellipse_34" data-name="Ellipse 34" class="cls-8" cx="592.5" cy="304" r="30.5"/></g></g></svg>